<svg xmlns="http://www.w3.org/2000/svg" viewBox="0 0 512 512">
  <rect width="512" height="512" rx="96" fill="#0d1b2a"/>
  <path d="M112 128h208c61.9 0 112 50.1 112 112s-50.1 112-112 112H192c-26.5 0-48-21.5-48-48s21.5-48 48-48h128c8.8 0 16-7.2 16-16s-7.2-16-16-16H112c-26.5 0-48-21.5-48-48s21.5-48 48-48Z" fill="#2ec4b6"/>
  <path d="M112 128h96v96h-96c-26.5 0-48-21.5-48-48s21.5-48 48-48Z" fill="#ffd166"/>
  <circle cx="142" cy="168" r="12" fill="#0d1b2a"/>
  <circle cx="182" cy="168" r="12" fill="#0d1b2a"/>
  <rect x="296" y="176" width="48" height="48" rx="14" fill="#e94f5f"/>
</svg>
